<svg width="24" height="24" viewBox="0 0 24 24" fill="none" xmlns="http://www.w3.org/2000/svg">
<path d="M20.7121 3.17548C18.4835 -0.014189 14.0821 -0.959618 10.8996 1.06802L5.31048 4.63024C4.55544 5.10525 3.90782 5.73257 3.40901 6.47211C2.91021 7.21164 2.57119 8.04712 2.41364 8.92513C2.14702 10.4041 2.38136 11.9297 3.07955 13.2605C2.60113 13.9862 2.27483 14.8014 2.12037 15.6568C1.96114 16.5525 1.98238 17.471 2.18282 18.3584C2.38326 19.2458 2.75888 20.0842 3.28765 20.8245C5.51669 24.0145 9.91814 24.9595 13.1001 22.932L18.6892 19.3697C19.4443 18.8948 20.092 18.2675 20.5908 17.5279C21.0896 16.7884 21.4286 15.9529 21.5861 15.0748C21.8527 13.5959 21.6185 12.0703 20.9207 10.7394C21.399 10.0136 21.7251 9.19847 21.8794 8.34313C22.0388 7.44743 22.0176 6.52894 21.8171 5.64154C21.6167 4.75414 21.241 3.91572 20.7122 3.17548" fill="#FF3E00"/>
<path d="M10.3537 21.1246C9.4741 21.3533 8.54554 21.3066 7.69339 20.9907C6.84124 20.6748 6.10656 20.1051 5.58856 19.3583C5.27052 18.9132 5.04458 18.409 4.92401 17.8753C4.80344 17.3417 4.79067 16.7893 4.88643 16.2507C4.91886 16.0738 4.96349 15.8994 5.02 15.7287L5.12525 15.4078L5.4116 15.6181C6.07291 16.104 6.81232 16.4734 7.59796 16.7105L7.80569 16.7735L7.78655 16.9808C7.76117 17.2757 7.84103 17.5702 8.01198 17.8118C8.16787 18.0368 8.38903 18.2084 8.6456 18.3037C8.90217 18.3989 9.18178 18.4131 9.44667 18.3443C9.56814 18.3119 9.68392 18.261 9.78998 18.1935L15.3793 14.6316C15.516 14.5455 15.6334 14.4319 15.7238 14.2979C15.8142 14.1639 15.8757 14.0126 15.9044 13.8536C15.9331 13.6912 15.9291 13.5248 15.8928 13.3639C15.8565 13.2031 15.7885 13.0511 15.6928 12.9169C15.5368 12.6919 15.3156 12.5202 15.0589 12.4249C14.8023 12.3296 14.5226 12.3154 14.2576 12.3841C14.1362 12.4166 14.0206 12.4674 13.9147 12.5349L11.7819 13.8945C11.4312 14.1175 11.0484 14.2855 10.6469 14.3929C9.76735 14.6216 8.83881 14.5748 7.98667 14.259C7.13453 13.9431 6.39986 13.3733 5.88188 12.6266C5.56382 12.1814 5.33788 11.6772 5.21731 11.1436C5.09674 10.6099 5.08397 10.0576 5.17975 9.51893C5.27447 8.99096 5.47835 8.48857 5.77833 8.0439C6.07832 7.59922 6.46781 7.22205 6.92189 6.93651L12.5107 3.3744C12.8616 3.15104 13.2446 2.98275 13.6464 2.87539C14.526 2.64671 15.4545 2.69346 16.3066 3.00932C17.1588 3.32518 17.8934 3.89495 18.4114 4.64166C18.7295 5.08682 18.9554 5.59102 19.076 6.12467C19.1965 6.65833 19.2093 7.21068 19.1135 7.74934C19.081 7.92616 19.0364 8.10055 18.98 8.27128L18.8747 8.59223L18.5885 8.38223C17.9273 7.89605 17.1878 7.52644 16.402 7.28938L16.1943 7.22633L16.2134 7.01901C16.2386 6.7241 16.1587 6.42978 15.988 6.18801C15.8321 5.96308 15.6109 5.79141 15.3544 5.69618C15.0978 5.60095 14.8182 5.58676 14.5533 5.65551C14.4318 5.68798 14.3161 5.73886 14.21 5.80639L8.6207 9.36835C8.48397 9.4544 8.36668 9.56802 8.27633 9.70196C8.18598 9.83589 8.12455 9.9872 8.09598 10.1462C8.06713 10.3086 8.07094 10.475 8.10721 10.6359C8.14347 10.7967 8.21146 10.9487 8.30718 11.083C8.46317 11.308 8.68442 11.4797 8.94107 11.575C9.19772 11.6702 9.47742 11.6845 9.74243 11.6158C9.86386 11.5833 9.97963 11.5324 10.0857 11.4649L12.2183 10.1058C12.5688 9.88253 12.9516 9.71431 13.3531 9.607C14.2326 9.37832 15.1612 9.42506 16.0133 9.74093C16.8655 10.0568 17.6001 10.6266 18.1181 11.3733C18.4362 11.8184 18.6621 12.3226 18.7827 12.8563C18.9033 13.3899 18.916 13.9423 18.8203 14.481C18.7255 15.009 18.5216 15.5114 18.2216 15.9561C17.9216 16.4008 17.5322 16.7781 17.0781 17.0638L11.4893 20.6256C11.1384 20.849 10.7554 21.0172 10.3536 21.1246" fill="white"/>
</svg>
