<svg width="24" height="24" viewBox="0 0 24 24" fill="none" xmlns="http://www.w3.org/2000/svg">
<path d="M20.7039 3.17022C18.487 -0.0229814 14.0734 -0.95857 10.9006 1.07532L5.30739 4.63462C3.78197 5.59055 2.72435 7.15664 2.41926 8.92613C2.15486 10.4109 2.37859 11.9363 3.09045 13.2583C2.60231 13.9905 2.27689 14.8041 2.13452 15.6583C1.8091 17.4685 2.23621 19.3396 3.29384 20.8244C5.53111 24.0176 9.92431 24.9532 13.0972 22.9396L18.6904 19.3803C20.2158 18.4244 21.2734 16.8583 21.5785 15.0888C21.8429 13.6041 21.6192 12.0787 20.9073 10.7566C21.3954 10.0244 21.7209 9.21087 21.8632 8.35664C22.1887 6.52614 21.7819 4.65496 20.7039 3.17022Z" fill="#159497"/>
<path d="M10.3514 21.1295C8.54127 21.5972 6.64975 20.8854 5.59213 19.36C4.94128 18.4651 4.69722 17.3464 4.88027 16.2481C4.92094 16.0651 4.96162 15.9024 5.0023 15.7193L5.10399 15.3939L5.38874 15.5973C6.05992 16.0854 6.79212 16.4515 7.58534 16.6956L7.78873 16.7566L7.76839 16.96C7.74805 17.2447 7.8294 17.5498 7.99212 17.7939C8.31754 18.2617 8.88703 18.4854 9.43618 18.343C9.55821 18.3023 9.68024 18.2617 9.78194 18.2007L15.3548 14.6414C15.6395 14.4583 15.8226 14.1939 15.8836 13.8685C15.9446 13.5431 15.8633 13.1973 15.6802 12.9329C15.3548 12.4651 14.7853 12.2617 14.2362 12.4041C14.1141 12.4448 13.9921 12.4854 13.8904 12.5464L11.7751 13.8888C11.4294 14.1125 11.0429 14.2753 10.6362 14.3769C8.82601 14.8447 6.93449 14.1329 5.87687 12.6075C5.24637 11.7126 4.98196 10.5939 5.18535 9.49561C5.3684 8.43799 6.01924 7.48206 6.93449 6.91258L12.5073 3.35327C12.8531 3.12954 13.2395 2.96683 13.6463 2.8448C15.4565 2.37701 17.348 3.08887 18.4056 4.61428C19.0565 5.50919 19.3005 6.62783 19.1175 7.72613C19.0768 7.90918 19.0361 8.07189 18.9751 8.25494L18.8734 8.58036L18.5887 8.37698C17.9175 7.88884 17.1853 7.52274 16.3921 7.27868L16.1887 7.21766L16.209 7.01427C16.2294 6.72953 16.148 6.42444 15.9853 6.18038C15.6599 5.71258 15.0904 5.50919 14.5412 5.65157C14.4192 5.69224 14.2972 5.73292 14.1955 5.79394L8.62262 9.37358C8.33788 9.55663 8.15483 9.82104 8.09381 10.1465C8.03279 10.4719 8.11415 10.8176 8.2972 11.082C8.62262 11.5498 9.19211 11.7532 9.74126 11.6109C9.86329 11.5702 9.98533 11.5295 10.087 11.4685L12.2226 10.1058C12.5684 9.88205 12.9548 9.71934 13.3616 9.59731C15.1717 9.12951 17.0633 9.84138 18.1209 11.3668C18.7717 12.2617 19.0158 13.3803 18.8327 14.4786C18.6497 15.5363 17.9988 16.4922 17.0836 17.0617L11.5107 20.621C11.1446 20.8447 10.7582 21.0074 10.3514 21.1295Z" fill="white"/>
</svg>
