<svg width="24" height="24" viewBox="0 0 24 24" fill="none" xmlns="http://www.w3.org/2000/svg">
<path d="M20.704 3.17022C18.4871 -0.0229814 14.0736 -0.95857 10.9007 1.07532L5.30751 4.63462C3.78209 5.59055 2.72447 7.15664 2.41939 8.92613C2.15498 10.4109 2.37871 11.9363 3.09057 13.2583C2.60244 13.9905 2.27701 14.8041 2.13464 15.6583C1.80922 17.4685 2.23634 19.3396 3.29396 20.8244C5.53123 24.0176 9.92443 24.9532 13.0973 22.9396L18.6905 19.3803C20.2159 18.4244 21.2735 16.8583 21.5786 15.0888C21.843 13.6041 21.6193 12.0787 20.9074 10.7566C21.3956 10.0244 21.721 9.21087 21.8634 8.35664C22.1888 6.52614 21.782 4.65496 20.704 3.17022Z" fill="#159497"/>
<path d="M10.3515 21.1295C8.54133 21.5972 6.64981 20.8854 5.59219 19.36C4.94134 18.4651 4.69728 17.3464 4.88033 16.2481C4.92101 16.0651 4.96168 15.9024 5.00236 15.7193L5.10406 15.3939L5.3888 15.5973C6.05998 16.0854 6.79218 16.4515 7.5854 16.6956L7.78879 16.7566L7.76845 16.96C7.74811 17.2447 7.82947 17.5498 7.99218 17.7939C8.3176 18.2617 8.88709 18.4854 9.43624 18.343C9.55827 18.3023 9.6803 18.2617 9.782 18.2007L15.3549 14.6414C15.6396 14.4583 15.8226 14.1939 15.8837 13.8685C15.9447 13.5431 15.8633 13.1973 15.6803 12.9329C15.3549 12.4651 14.7854 12.2617 14.2362 12.4041C14.1142 12.4448 13.9921 12.4854 13.8905 12.5464L11.7752 13.8888C11.4294 14.1125 11.043 14.2753 10.6362 14.3769C8.82607 14.8447 6.93456 14.1329 5.87693 12.6075C5.24643 11.7126 4.98202 10.5939 5.18541 9.49561C5.36846 8.43799 6.01931 7.48207 6.93456 6.91258L12.5074 3.35327C12.8532 3.12954 13.2396 2.96683 13.6464 2.8448C15.4565 2.37701 17.3481 3.08887 18.4057 4.61428C19.0565 5.50919 19.3006 6.62783 19.1175 7.72613C19.0769 7.90918 19.0362 8.07189 18.9752 8.25494L18.8735 8.58036L18.5887 8.37698C17.9176 7.88884 17.1854 7.52274 16.3921 7.27868L16.1887 7.21766L16.2091 7.01427C16.2294 6.72953 16.1481 6.42444 15.9854 6.18038C15.6599 5.71258 15.0904 5.50919 14.5413 5.65157C14.4193 5.69224 14.2972 5.73292 14.1955 5.79394L8.62268 9.37358C8.33794 9.55663 8.15489 9.82104 8.09387 10.1465C8.03285 10.4719 8.11421 10.8176 8.29726 11.082C8.62268 11.5498 9.19217 11.7532 9.74132 11.6109C9.86335 11.5702 9.98539 11.5295 10.0871 11.4685L12.2227 10.1058C12.5684 9.88205 12.9549 9.71934 13.3616 9.59731C15.1718 9.12951 17.0633 9.84138 18.1209 11.3668C18.7718 12.2617 19.0158 13.3803 18.8328 14.4786C18.6498 15.5363 17.9989 16.4922 17.0837 17.0617L11.5108 20.621C11.1447 20.8447 10.7583 21.0074 10.3515 21.1295Z" fill="white"/>
</svg>
