<svg width="24" height="24" viewBox="0 0 24 24" fill="none" xmlns="http://www.w3.org/2000/svg">
<path d="M20.7121 3.17548C18.4835 -0.014189 14.0821 -0.959618 10.8996 1.06802L5.31048 4.63024C4.55544 5.10525 3.90782 5.73257 3.40901 6.47211C2.91021 7.21164 2.57119 8.04712 2.41364 8.92513C2.14702 10.4041 2.38136 11.9297 3.07955 13.2605C2.60113 13.9862 2.27483 14.8014 2.12037 15.6568C1.96114 16.5525 1.98238 17.471 2.18282 18.3584C2.38326 19.2458 2.75888 20.0842 3.28765 20.8245C5.51669 24.0145 9.91814 24.9595 13.1001 22.932L18.6892 19.3697C19.4443 18.8948 20.092 18.2675 20.5908 17.5279C21.0896 16.7884 21.4286 15.9529 21.5861 15.0748C21.8527 13.5959 21.6185 12.0703 20.9207 10.7394C21.399 10.0136 21.7251 9.19847 21.8794 8.34313C22.0388 7.44743 22.0176 6.52894 21.8171 5.64154C21.6167 4.75414 21.241 3.91572 20.7122 3.17548" fill="#FF3E00"/>
<path d="M10.3536 21.1246C9.47404 21.3533 8.54549 21.3066 7.69334 20.9907C6.84119 20.6748 6.10651 20.1051 5.58851 19.3583C5.27047 18.9132 5.04453 18.409 4.92396 17.8753C4.80339 17.3417 4.79061 16.7893 4.88638 16.2507C4.91881 16.0738 4.96344 15.8994 5.01994 15.7287L5.1252 15.4078L5.41155 15.6181C6.07286 16.104 6.81226 16.4734 7.59791 16.7105L7.80564 16.7735L7.7865 16.9808C7.76112 17.2757 7.84098 17.5702 8.01193 17.8118C8.16782 18.0368 8.38898 18.2084 8.64555 18.3037C8.90211 18.3989 9.18172 18.4131 9.44662 18.3443C9.56809 18.3119 9.68386 18.261 9.78992 18.1935L15.3792 14.6316C15.516 14.5455 15.6333 14.4319 15.7237 14.2979C15.8141 14.1639 15.8756 14.0126 15.9044 13.8536C15.933 13.6912 15.9291 13.5248 15.8928 13.3639C15.8564 13.2031 15.7884 13.0511 15.6927 12.9169C15.5368 12.6919 15.3155 12.5202 15.0589 12.4249C14.8022 12.3296 14.5225 12.3154 14.2575 12.3841C14.1362 12.4166 14.0206 12.4674 13.9146 12.5349L11.7818 13.8945C11.4311 14.1175 11.0484 14.2855 10.6469 14.3929C9.7673 14.6216 8.83875 14.5748 7.98662 14.259C7.13448 13.9431 6.39981 13.3733 5.88182 12.6266C5.56377 12.1814 5.33782 11.6772 5.21725 11.1436C5.09668 10.6099 5.08391 10.0576 5.17969 9.51893C5.27442 8.99096 5.47829 8.48857 5.77828 8.0439C6.07826 7.59922 6.46775 7.22205 6.92184 6.93651L12.5106 3.3744C12.8615 3.15104 13.2445 2.98275 13.6464 2.87539C14.5259 2.64671 15.4544 2.69346 16.3066 3.00932C17.1587 3.32518 17.8934 3.89495 18.4114 4.64166C18.7294 5.08682 18.9553 5.59102 19.0759 6.12467C19.1965 6.65833 19.2093 7.21068 19.1135 7.74934C19.0809 7.92616 19.0363 8.10055 18.9799 8.27128L18.8747 8.59223L18.5885 8.38223C17.9272 7.89605 17.1877 7.52644 16.402 7.28938L16.1942 7.22633L16.2134 7.01901C16.2385 6.7241 16.1587 6.42978 15.9879 6.18801C15.8321 5.96308 15.6109 5.79141 15.3543 5.69618C15.0978 5.60095 14.8182 5.58676 14.5533 5.65551C14.4318 5.68798 14.316 5.73886 14.21 5.80639L8.62065 9.36835C8.48391 9.4544 8.36662 9.56802 8.27627 9.70196C8.18592 9.83589 8.1245 9.9872 8.09593 10.1462C8.06707 10.3086 8.07089 10.475 8.10716 10.6359C8.14342 10.7967 8.2114 10.9487 8.30713 11.083C8.46312 11.308 8.68436 11.4797 8.94101 11.575C9.19767 11.6702 9.47737 11.6845 9.74237 11.6158C9.86381 11.5833 9.97957 11.5324 10.0857 11.4649L12.2182 10.1058C12.5688 9.88253 12.9515 9.71431 13.353 9.607C14.2326 9.37832 15.1611 9.42506 16.0133 9.74093C16.8654 10.0568 17.6001 10.6266 18.1181 11.3733C18.4361 11.8184 18.6621 12.3226 18.7826 12.8563C18.9032 13.3899 18.916 13.9423 18.8202 14.481C18.7254 15.009 18.5215 15.5114 18.2215 15.9561C17.9216 16.4008 17.5321 16.7781 17.0781 17.0638L11.4892 20.6256C11.1384 20.849 10.7553 21.0172 10.3535 21.1246" fill="white"/>
</svg>
